<?xml version="1.0" encoding="UTF-8"?>
<svg version="1.1" xmlns="http://www.w3.org/2000/svg" width="609" height="604">
<path d="M0 0 C200.97 0 401.94 0 609 0 C609 199.32 609 398.64 609 604 C408.03 604 207.06 604 0 604 C0 404.68 0 205.36 0 0 Z " fill="#1B1D2A" transform="translate(0,0)"/>
<path d="M0 0 C1.37468697 -0.00855011 1.37468697 -0.00855011 2.77714539 -0.01727295 C4.71087512 -0.02666691 6.64462047 -0.03323445 8.57836914 -0.03710938 C11.46596118 -0.04672267 14.35281153 -0.07776178 17.24023438 -0.109375 C29.82397153 -0.1811382 41.8308528 0.89646168 54.19921875 3.203125 C55.73944702 3.48542969 55.73944702 3.48542969 57.31079102 3.7734375 C59.66492705 4.24029821 61.99272637 4.75966202 64.32421875 5.328125 C65.58745972 5.63399536 65.58745972 5.63399536 66.8762207 5.94604492 C112.823375 17.59209753 155.0697375 41.61522139 190.19921875 73.203125 C190.7317627 73.67927246 191.26430664 74.15541992 191.81298828 74.64599609 C200.936351 82.83348731 209.59169025 91.47891468 218.19921875 100.203125 C216.21953727 103.73978566 214.12149991 106.52847496 211.25 109.3828125 C210.10047852 110.52943359 210.10047852 110.52943359 208.92773438 111.69921875 C208.13044922 112.48425781 207.33316406 113.26929688 206.51171875 114.078125 C205.73376953 114.85542969 204.95582031 115.63273437 204.15429688 116.43359375 C183.89540088 136.5404213 160.88848224 153.00338257 136.19921875 167.203125 C135.55307617 167.57920898 134.90693359 167.95529297 134.24121094 168.34277344 C75.86324094 202.07719452 7.61964483 208.34839828 -56.80078125 191.515625 C-89.12159321 182.63518384 -120.14913931 166.43848477 -146.80078125 146.203125 C-147.3642627 145.77708984 -147.92774414 145.35105469 -148.50830078 144.91210938 C-165.56041875 131.94654517 -180.80958848 117.4920802 -195.80078125 102.203125 C-194.20511442 98.26598423 -191.48732756 95.60014421 -188.5234375 92.66015625 C-187.99745468 92.13225998 -187.47147186 91.60436371 -186.92955017 91.06047058 C-185.81315812 89.94271918 -184.69424291 88.82748297 -183.57299805 87.71459961 C-181.89339094 86.04554551 -180.22452714 84.36630327 -178.55664062 82.68554688 C-171.9578825 76.07827153 -165.13641767 69.99745604 -157.80078125 64.203125 C-156.57999699 63.19151274 -155.36210894 62.1763849 -154.1484375 61.15625 C-139.5754301 49.08808052 -123.50711359 39.04640582 -106.80078125 30.203125 C-105.84341064 29.69555664 -105.84341064 29.69555664 -104.86669922 29.17773438 C-72.73174799 12.29942205 -36.59600691 0.18227706 0 0 Z " fill="#BCA779" transform="translate(290.80078125,191.796875)"/>
<path d="M0 0 C15.72546596 14.29216118 27.85178616 34.63822606 29.08105469 56.2644043 C29.52158946 69.06420287 29.39115758 80.6484492 24.94018555 92.78613281 C24.58956055 93.80320312 24.23893555 94.82027344 23.87768555 95.86816406 C16.01596542 116.69626286 0.35498392 133.23799499 -19.78637695 142.56347656 C-39.87648667 151.33921598 -61.26322189 152.60817055 -82.05981445 145.78613281 C-82.97891602 145.48578125 -83.89801758 145.18542969 -84.8449707 144.87597656 C-106.22973633 137.04732227 -122.85954441 119.94948872 -132.5715332 99.62207031 C-141.62569303 77.70719697 -141.59931475 53.57993298 -132.75512695 31.68066406 C-123.65112138 10.20172127 -107.0417759 -5.73362333 -85.55981445 -14.58886719 C-57.67245269 -25.37895696 -22.54965101 -19.67145435 0 0 Z " fill="#1B1D29" transform="translate(357.059814453125,226.2138671875)"/>
<path d="M0 0 C-0.4846875 0.63164062 -0.969375 1.26328125 -1.46875 1.9140625 C-19.59552374 26.10633361 -27.29156008 52.35991327 -23.67919922 82.69384766 C-22.85295545 87.60412501 -21.54916104 92.271515 -20 97 C-19.43925781 98.71316406 -19.43925781 98.71316406 -18.8671875 100.4609375 C-14.98981835 111.27135082 -9.7936037 121.3887669 -2.3828125 130.1953125 C-1 132 -1 132 0 135 C0.66 135 1.32 135 2 135 C2 135.66 2 136.32 2 137 C-33.25857257 125.65080733 -65.6778059 105.58263773 -92.57421875 80.21484375 C-94.98825398 77.89849492 -94.98825398 77.89849492 -98 76 C-98 75.34 -98 74.68 -98 74 C-98.66 74 -99.32 74 -100 74 C-101.2890625 72.46875 -101.2890625 72.46875 -102.625 70.5 C-103.07101563 69.8503125 -103.51703125 69.200625 -103.9765625 68.53125 C-104.48316406 67.77328125 -104.48316406 67.77328125 -105 67 C-97.82467213 59.63612337 -90.69564169 52.42876315 -82.60546875 46.0546875 C-80.91307577 44.72005676 -79.24670417 43.35149982 -77.61328125 41.9453125 C-58.48207861 25.54713881 -35.93297627 13.1998766 -13 3 C-11.95070313 2.53207031 -10.90140625 2.06414062 -9.8203125 1.58203125 C-3.41443595 -1.13814532 -3.41443595 -1.13814532 0 0 Z " fill="#1B1D29" transform="translate(226,225)"/>
<path d="M0 0 C33.69346638 10.56783889 65.25440225 31.05812282 90.890625 55.1015625 C92.85396412 57.03778581 92.85396412 57.03778581 95 58 C95 58.66 95 59.32 95 60 C95.53625 60.20625 96.0725 60.4125 96.625 60.625 C99.87338889 62.5056462 102.91978735 64.83807678 105 68 C104.34411058 72.60881011 101.33364039 75.07833473 98.125 78.1875 C97.53783203 78.76411377 96.95066406 79.34072754 96.34570312 79.93481445 C91.15921051 84.96641316 85.70499706 89.56544346 80 94 C79.01773438 94.78761719 78.03546875 95.57523437 77.0234375 96.38671875 C55.37709834 113.60377399 28.7427784 130.16971449 2 138 C1.34 137.67 0.68 137.34 0 137 C0.6290625 136.2471875 1.258125 135.494375 1.90625 134.71875 C20.95471857 111.33173371 27.0799288 83.7877068 25 54 C22.42935347 33.63804094 11.93446485 16.27427025 0 0 Z " fill="#1B1D29" transform="translate(377,223)"/>
<path d="M0 0 C8.25 0 16.5 0 25 0 C25 33.33 25 66.66 25 101 C16.75 101 8.5 101 0 101 C0 67.67 0 34.34 0 0 Z " fill="#FABD06" transform="translate(325,236)"/>
<path d="M0 0 C8.25 0 16.5 0 25 0 C25 21.45 25 42.9 25 65 C16.75 65 8.5 65 0 65 C0 43.55 0 22.1 0 0 Z " fill="#FABE05" transform="translate(288,272)"/>
<path d="M0 0 C8.25 0 16.5 0 25 0 C25 11.55 25 23.1 25 35 C16.75 35 8.5 35 0 35 C0 23.45 0 11.9 0 0 Z " fill="#F6BB07" transform="translate(251,302)"/>
<path d="M0 0 C0 3 0 3 -1 6 C-1.99 6 -2.98 6 -4 6 C-5.20628008 8.33214148 -6.1654738 10.49642139 -7 13 C-10.21284338 14.88579937 -12.24633583 16 -16 16 C-10.72 10.72 -5.44 5.44 0 0 Z " fill="#171620" transform="translate(508,294)"/>
<path d="M0 0 C-1.75 4.875 -1.75 4.875 -4 6 C-3.47731534 8.76276177 -2.89130413 11.3260876 -2 14 C-2.66 14 -3.32 14 -4 14 C-5.2890625 12.46875 -5.2890625 12.46875 -6.625 10.5 C-7.07101563 9.8503125 -7.51703125 9.200625 -7.9765625 8.53125 C-8.48316406 7.77328125 -8.48316406 7.77328125 -9 7 C-7.88121617 5.82737096 -6.75476949 4.66204862 -5.625 3.5 C-4.68527344 2.52546875 -4.68527344 2.52546875 -3.7265625 1.53125 C-2 0 -2 0 0 0 Z " fill="#18181F" transform="translate(130,285)"/>
<path d="M0 0 C-0.55959523 3.82246588 -2.21317357 5.58971741 -4.9375 8.25 C-5.64777344 8.95640625 -6.35804688 9.6628125 -7.08984375 10.390625 C-9 12 -9 12 -11 12 C-9.56438314 8.81293058 -7.79733671 6.37830895 -5.5 3.75 C-4.8915625 3.04359375 -4.283125 2.3371875 -3.65625 1.609375 C-2 0 -2 0 0 0 Z " fill="#15181F" transform="translate(482,291)"/>
<path d="M0 0 C2.29141286 -0.05384521 4.58318188 -0.09272087 6.875 -0.125 C8.78925781 -0.15980469 8.78925781 -0.15980469 10.7421875 -0.1953125 C14 0 14 0 16 2 C13.54171921 2.16747412 11.08338135 2.3340144 8.625 2.5 C7.92632812 2.54769531 7.22765625 2.59539062 6.5078125 2.64453125 C1.2265625 3 1.2265625 3 -1 3 C-0.67 2.01 -0.34 1.02 0 0 Z " fill="#12131D" transform="translate(294,207)"/>
<path d="M0 0 C0.66 0 1.32 0 2 0 C0.59155282 3.21524305 -1.10344786 5.32183868 -3.625 7.75 C-4.57246094 8.67039062 -4.57246094 8.67039062 -5.5390625 9.609375 C-6.02117187 10.06828125 -6.50328125 10.5271875 -7 11 C-7.33 10.01 -7.66 9.02 -8 8 C-7.34 8 -6.68 8 -6 8 C-5.34 6.68 -4.68 5.36 -4 4 C-3.34 4 -2.68 4 -2 4 C-1.34 2.68 -0.68 1.36 0 0 Z " fill="#27272A" transform="translate(112,272)"/>
<path d="M0 0 C0.33 0 0.66 0 1 0 C1 1.98 1 3.96 1 6 C-1.31 6.66 -3.62 7.32 -6 8 C-2.25 2.25 -2.25 2.25 0 0 Z " fill="#18171B" transform="translate(383,353)"/>
<path d="M0 0 C4.3890815 0.51035831 7.33708062 1.52214277 11 4 C10.67 4.66 10.34 5.32 10 6 C8.35 5.67 6.7 5.34 5 5 C5 4.34 5 3.68 5 3 C2.525 2.01 2.525 2.01 0 1 C0 0.67 0 0.34 0 0 Z " fill="#161720" transform="translate(197,370)"/>
<path d="M0 0 C0.99 0.33 1.98 0.66 3 1 C1.35 2.65 -0.3 4.3 -2 6 C-2.99 5.34 -3.98 4.68 -5 4 C-3.36587557 2.29159719 -2.13093906 1.06546953 0 0 Z " fill="#151415" transform="translate(223,224)"/>
<path d="M0 0 C0.7425 0.0825 1.485 0.165 2.25 0.25 C0.32182111 2.17817889 -1.44973965 3.78619796 -3.75 5.25 C-4.74 4.92 -5.73 4.59 -6.75 4.25 C-3.42692308 0.31153846 -3.42692308 0.31153846 0 0 Z " fill="#171820" transform="translate(196.75,236.75)"/>
<path d="M0 0 C0 0.66 0 1.32 0 2 C-0.66 2 -1.32 2 -2 2 C-2 2.66 -2 3.32 -2 4 C-3.98 4.99 -5.96 5.98 -8 7 C-6.47663111 3.31852519 -4.31953005 0 0 0 Z " fill="#181820" transform="translate(471,330)"/>
<path d="M0 0 C0.99 0.33 1.98 0.66 3 1 C1.68 1.33 0.36 1.66 -1 2 C-1.33 3.32 -1.66 4.64 -2 6 C-2.99 6 -3.98 6 -5 6 C-3.63016497 2.83884224 -3.0109362 2.0072908 0 0 Z " fill="#C1AD82" transform="translate(146,246)"/>
<path d="M0 0 C4.455 0.99 4.455 0.99 9 2 C8.67 2.99 8.34 3.98 8 5 C5.36 3.68 2.72 2.36 0 1 C0 0.67 0 0.34 0 0 Z " fill="#19191F" transform="translate(407,215)"/>
<path d="M0 0 C2.97 0 5.94 0 9 0 C7.515 1.485 7.515 1.485 6 3 C4.02 2.34 2.04 1.68 0 1 C0 0.67 0 0.34 0 0 Z " fill="#13151F" transform="translate(277,392)"/>
</svg>
